<svg width="50" height="50" viewBox="0 0 50 50" fill="none" xmlns="http://www.w3.org/2000/svg">
<path d="M31.25 33.9286C31.25 34.9152 30.5508 35.7143 29.6875 35.7143H20.3125C19.4492 35.7143 18.75 34.9152 18.75 33.9286V28.5714H0V44.6429C0 47.5 2.1875 50 4.6875 50H45.3125C47.8125 50 50 47.5 50 44.6429V28.5714H31.25V33.9286ZM45.3125 10.7143H37.5V5.35714C37.5 2.5 35.3125 0 32.8125 0H17.1875C14.6875 0 12.5 2.5 12.5 5.35714V10.7143H4.6875C2.1875 10.7143 0 13.2143 0 16.0714V25H50V16.0714C50 13.2143 47.8125 10.7143 45.3125 10.7143ZM31.25 10.7143H18.75V7.14286H31.25V10.7143Z" fill="#080C48"/>
</svg>
