<svg width="24" height="24" viewBox="0 0 24 24" fill="none" xmlns="http://www.w3.org/2000/svg">
<path d="M5.96244 4.35001C7.37002 3.23747 9.05657 2.53366 10.8374 2.31563C10.8897 2.31037 10.9426 2.31617 10.9925 2.33265C11.0424 2.34913 11.0883 2.37591 11.1272 2.41127C11.1661 2.44663 11.1971 2.48978 11.2183 2.5379C11.2394 2.58603 11.2502 2.63806 11.2499 2.69063V11.25H8.97181C8.78394 8.83491 7.7046 6.57599 5.94369 4.91251C5.90349 4.87684 5.87166 4.83275 5.85044 4.78338C5.82923 4.734 5.81916 4.68056 5.82095 4.62685C5.82274 4.57314 5.83634 4.52049 5.8608 4.47264C5.88525 4.42479 5.91996 4.38292 5.96244 4.35001ZM4.31244 6.00938C3.2248 7.40637 2.53486 9.0713 2.31556 10.8281C2.31038 10.8809 2.31617 10.9341 2.33256 10.9846C2.34895 11.035 2.37559 11.0814 2.41081 11.1211C2.44603 11.1607 2.48906 11.1926 2.53721 11.2148C2.58535 11.237 2.63756 11.249 2.69056 11.25H7.46244C7.27699 9.22799 6.35238 7.34538 4.86556 5.96251C4.82727 5.92693 4.78197 5.89974 4.73255 5.8827C4.68314 5.86566 4.63071 5.85914 4.57863 5.86355C4.52654 5.86796 4.47596 5.88322 4.43012 5.90833C4.38428 5.93344 4.34419 5.96786 4.31244 6.00938ZM18.0374 4.35001C16.6299 3.23747 14.9433 2.53366 13.1624 2.31563C13.1101 2.31037 13.0573 2.31617 13.0074 2.33265C12.9575 2.34913 12.9116 2.37591 12.8727 2.41127C12.8338 2.44663 12.8028 2.48978 12.7816 2.5379C12.7605 2.58603 12.7497 2.63806 12.7499 2.69063V11.25H15.0281C15.2159 8.83491 16.2953 6.57599 18.0562 4.91251C18.0964 4.87684 18.1282 4.83275 18.1494 4.78338C18.1706 4.734 18.1807 4.68056 18.1789 4.62685C18.1771 4.57314 18.1635 4.52049 18.1391 4.47264C18.1146 4.42479 18.0799 4.38292 18.0374 4.35001ZM21.6843 10.8281C21.465 9.0713 20.7751 7.40637 19.6874 6.00938C19.6557 5.96786 19.6156 5.93344 19.5698 5.90833C19.5239 5.88322 19.4733 5.86796 19.4212 5.86355C19.3692 5.85914 19.3167 5.86566 19.2673 5.8827C19.2179 5.89974 19.1726 5.92693 19.1343 5.96251C17.6475 7.34538 16.7229 9.22799 16.5374 11.25H21.3093C21.3623 11.249 21.4145 11.237 21.4627 11.2148C21.5108 11.1926 21.5538 11.1607 21.5891 11.1211C21.6243 11.0814 21.6509 11.035 21.6673 10.9846C21.6837 10.9341 21.6895 10.8809 21.6843 10.8281ZM2.31556 13.1719C2.53486 14.9287 3.2248 16.5936 4.31244 17.9906C4.34419 18.0321 4.38428 18.0666 4.43012 18.0917C4.47596 18.1168 4.52654 18.132 4.57863 18.1365C4.63071 18.1409 4.68314 18.1344 4.73255 18.1173C4.78197 18.1003 4.82727 18.0731 4.86556 18.0375C6.35238 16.6546 7.27699 14.772 7.46244 12.75H2.69056C2.63756 12.751 2.58535 12.763 2.53721 12.7852C2.48906 12.8074 2.44603 12.8393 2.41081 12.8789C2.37559 12.9186 2.34895 12.965 2.33256 13.0155C2.31617 13.0659 2.31038 13.1191 2.31556 13.1719ZM19.6874 17.9906C20.7751 16.5936 21.465 14.9287 21.6843 13.1719C21.6895 13.1191 21.6837 13.0659 21.6673 13.0155C21.6509 12.965 21.6243 12.9186 21.5891 12.8789C21.5538 12.8393 21.5108 12.8074 21.4627 12.7852C21.4145 12.763 21.3623 12.751 21.3093 12.75H16.5374C16.7229 14.772 17.6475 16.6546 19.1343 18.0375C19.1726 18.0731 19.2179 18.1003 19.2673 18.1173C19.3167 18.1344 19.3692 18.1409 19.4212 18.1365C19.4733 18.132 19.5239 18.1168 19.5698 18.0917C19.6156 18.0666 19.6557 18.0321 19.6874 17.9906ZM5.96244 19.65C7.37002 20.7625 9.05657 21.4663 10.8374 21.6844C10.8897 21.6896 10.9426 21.6838 10.9925 21.6674C11.0424 21.6509 11.0883 21.6241 11.1272 21.5887C11.1661 21.5534 11.1971 21.5102 11.2183 21.4621C11.2394 21.414 11.2502 21.3619 11.2499 21.3094V12.75H8.97181C8.78394 15.1651 7.7046 17.424 5.94369 19.0875C5.90349 19.1232 5.87166 19.1673 5.85044 19.2166C5.82923 19.266 5.81916 19.3195 5.82095 19.3732C5.82274 19.4269 5.83634 19.4795 5.8608 19.5274C5.88525 19.5752 5.91996 19.6171 5.96244 19.65ZM15.0281 12.75H12.7499V21.3094C12.7497 21.3619 12.7605 21.414 12.7816 21.4621C12.8028 21.5102 12.8338 21.5534 12.8727 21.5887C12.9116 21.6241 12.9575 21.6509 13.0074 21.6674C13.0573 21.6838 13.1101 21.6896 13.1624 21.6844C14.9433 21.4663 16.6299 20.7625 18.0374 19.65C18.0799 19.6171 18.1146 19.5752 18.1391 19.5274C18.1635 19.4795 18.1771 19.4269 18.1789 19.3732C18.1807 19.3195 18.1706 19.266 18.1494 19.2166C18.1282 19.1673 18.0964 19.1232 18.0562 19.0875C16.2953 17.424 15.2159 15.1651 15.0281 12.75Z" fill="white"/>
</svg>
