<svg width="28" height="28" viewBox="0 0 28 28" fill="none" xmlns="http://www.w3.org/2000/svg">
<path d="M15.1772 4.7184L14.0889 9.37284C14.0279 9.61385 14.0293 9.86643 14.0931 10.1067C14.1568 10.347 14.2807 10.5671 14.4532 10.7462L16.4013 12.7939C15.9627 14.3267 15.0258 15.6697 13.7387 16.6106L11.1246 15.4885C10.8975 15.3881 10.649 15.3461 10.4015 15.3662C10.154 15.3862 9.91551 15.4678 9.70757 15.6035L5.70176 18.2182C5.43201 18.3989 5.22684 18.6609 5.11601 18.9661C5.00518 19.2713 4.99446 19.6039 5.08539 19.9156C5.46718 21.134 6.27843 22.1723 7.36831 22.8375C8.45819 23.5027 9.75253 23.7494 11.0107 23.5319C18.3428 22.2476 23.2633 15.2372 21.979 7.90512C21.7559 6.64794 21.0839 5.51453 20.0879 4.71563C19.0919 3.91673 17.8397 3.5067 16.564 3.56177C16.24 3.5822 15.9308 3.70534 15.6815 3.91331C15.4321 4.12128 15.2554 4.40327 15.1772 4.7184Z" fill="white"/>
</svg>
