<svg width="70" height="70" viewBox="0 0 70 70" fill="none" xmlns="http://www.w3.org/2000/svg">
<path d="M30.505 69.9318L23.8337 67.5117C23.1337 67.2656 22.74 66.3495 22.9369 65.4744L37.8654 1.18446C38.0623 0.309394 38.795 -0.182831 39.495 0.0632817L46.1663 2.48339C46.8663 2.7295 47.26 3.64558 47.0631 4.52065L32.1346 68.8106C31.9268 69.6857 31.205 70.1916 30.505 69.9318ZM18.0373 54.5908L22.7947 48.2466C23.2978 47.5766 23.265 46.5101 22.7072 45.8949L12.7986 34.9976L22.7072 24.1002C23.265 23.485 23.3087 22.4185 22.7947 21.7485L18.0373 15.4043C17.5451 14.748 16.7139 14.707 16.178 15.3359L0.418327 33.7943C-0.139442 34.437 -0.139442 35.5445 0.418327 36.1871L16.178 54.6592C16.7139 55.2881 17.5451 55.2608 18.0373 54.5908ZM53.822 54.6729L69.5817 36.2008C70.1394 35.5581 70.1394 34.4506 69.5817 33.808L53.822 15.3222C53.297 14.707 52.4658 14.7343 51.9627 15.3906L47.2053 21.7348C46.7022 22.4048 46.735 23.4713 47.2928 24.0866L57.2014 34.9976L47.2928 45.8949C46.735 46.5101 46.6913 47.5766 47.2053 48.2466L51.9627 54.5908C52.4549 55.2608 53.2861 55.2881 53.822 54.6729Z" fill="#080C48"/>
</svg>
